<?xml version="1.0" standalone="no"?><!DOCTYPE svg PUBLIC "-//W3C//DTD SVG 1.1//EN" "http://www.w3.org/Graphics/SVG/1.1/DTD/svg11.dtd"><svg t="1709190349706" class="icon" viewBox="0 0 1204 1024" version="1.1" xmlns="http://www.w3.org/2000/svg" p-id="27050" xmlns:xlink="http://www.w3.org/1999/xlink" width="235.15625" height="200"><path d="M884.23234369 81.53770667c0-19.24816592-15.75291259-35.00107852-35.00107852-35.00107852H172.42642962c-19.24816592 0-35.00107852 15.75291259-35.00107853 35.00107852v676.80483555c0 19.24816592 15.75291259 35.00107852 35.00107853 35.00107853h74.6989037V197.97333333c0-23.09537185 18.89621333-42.00372148 42.00372147-42.00372148h595.1032889v-74.43190518z" fill="#8a8a8a" p-id="27051"></path><path d="M1033.61801479 230.65637925H356.81317924c-19.24816592 0-35.00107852 15.75291259-35.00107851 35.00107853v676.80483555c0 19.24816592 15.75291259 35.00107852 35.00107851 35.00107852H1033.61801479c19.24816592 0 35.00107852-15.75291259 35.00107853-35.00107852V265.65745778c0-19.24816592-15.75291259-35.00107852-35.00107853-35.00107853zM993.93232591 643.55745185c0 19.24816592-15.75291259 35.00107852-35.00107852 35.00107852H769.14384591v189.78740148c0 19.24816592-15.75291259 35.00107852-35.00107852 35.00107852h-77.86647703c-19.24816592 0-35.00107852-15.75291259-35.00107852-35.00107852V678.55853037H431.48781036c-19.24816592 0-35.00107852-15.75291259-35.00107852-35.00107852v-77.86647703c0-19.24816592 15.75291259-35.00107852 35.00107852-35.00107852h189.78740148V340.90249482c0-19.24816592 15.75291259-35.00107852 35.00107852-35.00107852h77.86647703c19.24816592 0 35.00107852 15.75291259 35.00107852 35.00107852V530.6898963h189.78740148c19.24816592 0 35.00107852 15.75291259 35.00107852 35.00107852v77.86647703z" fill="#8a8a8a" p-id="27052"></path></svg>
